<svg width="192" height="192" viewBox="0 0 192 192" fill="none" xmlns="http://www.w3.org/2000/svg">

<g clip-path="url(#clip0_520_237)">

<path d="M78.3518 44.3721C82.0099 44.6681 85.6302 43.4573 88.3741 41.02L101.045 29.765C104.064 27.0835 108.685 27.357 111.367 30.3759L113.037 32.2559C114.796 34.2365 114.616 37.2684 112.636 39.0277C109.481 41.8297 111.22 47.046 115.425 47.3944L133.534 48.8951C140.23 49.45 145.307 55.1713 145.062 61.8862L142.763 124.842C142.636 128.339 139.617 131.024 136.128 130.741C132.85 130.476 130.362 127.675 130.485 124.388L132.067 82.1701C132.508 70.3985 123.599 60.3682 111.858 59.4178L69.751 56.0096C66.4705 55.744 63.9812 52.9416 64.1045 49.6527C64.2356 46.156 67.255 43.474 70.7428 43.7562L78.3518 44.3721Z" fill="#FEFBF9"/>

<path d="M52.5684 144.206C53.4872 145.24 54.7818 145.858 56.1646 145.928C57.5475 145.993 58.8966 145.496 59.9085 144.558L113.377 94.8379C118.297 90.2627 118.663 82.596 114.201 77.5728C109.739 72.5496 102.082 72.0089 96.9587 76.3553L41.2812 123.588C40.2278 124.479 39.5785 125.763 39.4792 127.144C39.383 128.522 39.8465 129.884 40.7627 130.915L52.5684 144.206Z" fill="#FEFBF9"/>

</g>

<defs>

<clipPath id="clip0_520_237">

<rect width="135.342" height="135.342" fill="white" transform="translate(101.189) rotate(48.3871)"/>

</clipPath>

</defs>

</svg>
